<svg xmlns="http://www.w3.org/2000/svg" width="220" height="220" viewBox="0 0 220 220"><rect width="220" height="220" fill="#FFFFFF"/><line x1="110" y1="78" x2="150.0" y2="78.0" stroke="#1F5F9E" stroke-width="6" stroke-linecap="round"/><line x1="134.0" y1="78.0" x2="143.8" y2="71.1" stroke="#1F5F9E" stroke-width="5" stroke-linecap="round"/><line x1="134.0" y1="78.0" x2="143.8" y2="84.9" stroke="#1F5F9E" stroke-width="5" stroke-linecap="round"/><line x1="110" y1="78" x2="130.0" y2="112.6" stroke="#1F5F9E" stroke-width="6" stroke-linecap="round"/><line x1="122.0" y1="98.8" x2="132.9" y2="103.9" stroke="#1F5F9E" stroke-width="5" stroke-linecap="round"/><line x1="122.0" y1="98.8" x2="121.0" y2="110.7" stroke="#1F5F9E" stroke-width="5" stroke-linecap="round"/><line x1="110" y1="78" x2="90.0" y2="112.6" stroke="#1F5F9E" stroke-width="6" stroke-linecap="round"/><line x1="98.0" y1="98.8" x2="99.0" y2="110.7" stroke="#1F5F9E" stroke-width="5" stroke-linecap="round"/><line x1="98.0" y1="98.8" x2="87.1" y2="103.9" stroke="#1F5F9E" stroke-width="5" stroke-linecap="round"/><line x1="110" y1="78" x2="70.0" y2="78.0" stroke="#1F5F9E" stroke-width="6" stroke-linecap="round"/><line x1="86.0" y1="78.0" x2="76.2" y2="84.9" stroke="#1F5F9E" stroke-width="5" stroke-linecap="round"/><line x1="86.0" y1="78.0" x2="76.2" y2="71.1" stroke="#1F5F9E" stroke-width="5" stroke-linecap="round"/><line x1="110" y1="78" x2="90.0" y2="43.4" stroke="#1F5F9E" stroke-width="6" stroke-linecap="round"/><line x1="98.0" y1="57.2" x2="87.1" y2="52.1" stroke="#1F5F9E" stroke-width="5" stroke-linecap="round"/><line x1="98.0" y1="57.2" x2="99.0" y2="45.3" stroke="#1F5F9E" stroke-width="5" stroke-linecap="round"/><line x1="110" y1="78" x2="130.0" y2="43.4" stroke="#1F5F9E" stroke-width="6" stroke-linecap="round"/><line x1="122.0" y1="57.2" x2="121.0" y2="45.3" stroke="#1F5F9E" stroke-width="5" stroke-linecap="round"/><line x1="122.0" y1="57.2" x2="132.9" y2="52.1" stroke="#1F5F9E" stroke-width="5" stroke-linecap="round"/><line x1="110" y1="196" x2="110" y2="132" stroke="#4F9F5A" stroke-width="7" stroke-linecap="round"/><path d="M110 168 C110 148 94 138 74 140 C74 160 90 170 110 168 Z" fill="#4F9F5A"/><path d="M110 150 C110 130 126 120 146 122 C146 142 130 152 110 150 Z" fill="#9CC94A"/></svg>
