<svg xmlns="http://www.w3.org/2000/svg" width="220" height="220" viewBox="0 0 220 220"><rect width="220" height="220" fill="#0F2B46"/><line x1="110.0" y1="26.0" x2="169.4" y2="50.6" stroke="#1C8C8C" stroke-width="2.5"/><line x1="110.0" y1="26.0" x2="138.3" y2="81.7" stroke="#1C8C8C" stroke-width="2.5"/><line x1="169.4" y1="50.6" x2="194.0" y2="110.0" stroke="#1C8C8C" stroke-width="2.5"/><line x1="169.4" y1="50.6" x2="138.3" y2="81.7" stroke="#1C8C8C" stroke-width="2.5"/><line x1="194.0" y1="110.0" x2="169.4" y2="169.4" stroke="#1C8C8C" stroke-width="2.5"/><line x1="194.0" y1="110.0" x2="138.3" y2="138.3" stroke="#1C8C8C" stroke-width="2.5"/><line x1="169.4" y1="169.4" x2="110.0" y2="194.0" stroke="#1C8C8C" stroke-width="2.5"/><line x1="169.4" y1="169.4" x2="138.3" y2="138.3" stroke="#1C8C8C" stroke-width="2.5"/><line x1="110.0" y1="194.0" x2="50.6" y2="169.4" stroke="#1C8C8C" stroke-width="2.5"/><line x1="110.0" y1="194.0" x2="81.7" y2="138.3" stroke="#1C8C8C" stroke-width="2.5"/><line x1="50.6" y1="169.4" x2="26.0" y2="110.0" stroke="#1C8C8C" stroke-width="2.5"/><line x1="50.6" y1="169.4" x2="81.7" y2="138.3" stroke="#1C8C8C" stroke-width="2.5"/><line x1="26.0" y1="110.0" x2="50.6" y2="50.6" stroke="#1C8C8C" stroke-width="2.5"/><line x1="26.0" y1="110.0" x2="81.7" y2="81.7" stroke="#1C8C8C" stroke-width="2.5"/><line x1="50.6" y1="50.6" x2="110.0" y2="26.0" stroke="#1C8C8C" stroke-width="2.5"/><line x1="50.6" y1="50.6" x2="81.7" y2="81.7" stroke="#1C8C8C" stroke-width="2.5"/><line x1="138.3" y1="81.7" x2="110" y2="110" stroke="#1C8C8C" stroke-width="2.5"/><line x1="138.3" y1="138.3" x2="110" y2="110" stroke="#1C8C8C" stroke-width="2.5"/><line x1="81.7" y1="138.3" x2="110" y2="110" stroke="#1C8C8C" stroke-width="2.5"/><line x1="81.7" y1="81.7" x2="110" y2="110" stroke="#1C8C8C" stroke-width="2.5"/><circle cx="110.0" cy="26.0" r="7" fill="#F6F3EC"/><circle cx="169.4" cy="50.6" r="7" fill="#F6F3EC"/><circle cx="194.0" cy="110.0" r="7" fill="#F6F3EC"/><circle cx="169.4" cy="169.4" r="7" fill="#F6F3EC"/><circle cx="110.0" cy="194.0" r="7" fill="#F6F3EC"/><circle cx="50.6" cy="169.4" r="7" fill="#F6F3EC"/><circle cx="26.0" cy="110.0" r="7" fill="#F6F3EC"/><circle cx="50.6" cy="50.6" r="7" fill="#F6F3EC"/><circle cx="138.3" cy="81.7" r="6" fill="#4F9F5A"/><circle cx="138.3" cy="138.3" r="6" fill="#4F9F5A"/><circle cx="81.7" cy="138.3" r="6" fill="#4F9F5A"/><circle cx="81.7" cy="81.7" r="6" fill="#4F9F5A"/><circle cx="110" cy="110" r="12" fill="#E9893A"/></svg>
